<svg width="28" height="28" viewBox="0 0 28 28" fill="none" xmlns="http://www.w3.org/2000/svg">
	<g clip-path="url(#clip0_410_5)">
		<path d="M21.7163 2H7.28365C4.36557 2 2 4.27095 2 7.0723V20.9276C2 23.7289 4.36557 26 7.28365 26H21.7163C24.6344 26 27 23.7289 27 20.9276V7.0723C27 4.27095 24.6344 2 21.7163 2Z" fill="url(#paint0_linear_410_5)" />
		<path d="M6.96289 15.5215C6.88477 15.5605 6.83594 15.6191 6.81641 15.6973C6.81641 15.7754 6.81641 15.8438 6.81641 15.9023C6.69922 16.1953 6.67969 16.3906 6.75781 16.4883C6.69922 16.6445 6.68945 16.8594 6.72852 17.1328C6.74805 17.2695 6.77734 17.4062 6.81641 17.543C6.875 17.6602 6.92383 17.7969 6.96289 17.9531C7.02148 18.0312 7.06055 18.1094 7.08008 18.1875C7.11914 18.2656 7.16797 18.3438 7.22656 18.4219C7.28516 18.5 7.32422 18.5684 7.34375 18.627C7.36328 18.6855 7.41211 18.7246 7.49023 18.7441L7.66602 19.0957C7.88086 19.252 7.99805 19.3594 8.01758 19.418C8.03711 19.457 8.0957 19.4668 8.19336 19.4473C8.23242 19.5254 8.28125 19.5742 8.33984 19.5938C8.41797 19.5938 8.47656 19.6328 8.51562 19.7109C8.69141 19.75 8.83789 19.8086 8.95508 19.8867C9.07227 19.9453 9.23828 19.9648 9.45312 19.9453C9.70703 19.9844 9.86328 20.0137 9.92188 20.0332C9.98047 20.0332 10.0586 20.0527 10.1562 20.0918C10.293 20.0723 10.3809 20.0527 10.4199 20.0332C10.459 20.0137 10.498 20.0039 10.5371 20.0039C10.752 20.0234 10.8984 20.0137 10.9766 19.9746C11.0547 19.9355 11.1523 19.916 11.2695 19.916C11.3867 19.7988 11.4648 19.75 11.5039 19.7695C11.5625 19.7695 11.582 19.7402 11.5625 19.6816C11.6602 19.6816 11.7285 19.6523 11.7676 19.5938C11.8262 19.5156 11.9141 19.457 12.0312 19.418C12.1289 19.3008 12.1973 19.2227 12.2363 19.1836C12.2949 19.125 12.3535 19.0957 12.4121 19.0957C12.6074 19.0566 12.7148 19.0371 12.7344 19.0371C12.8516 19.2129 12.8906 19.3301 12.8516 19.3887C12.8125 19.4473 12.8027 19.5449 12.8223 19.6816C12.7246 19.7402 12.6465 19.8086 12.5879 19.8867C12.5293 19.9648 12.4707 20.0527 12.4121 20.1504C12.3145 20.1504 12.2363 20.1699 12.1777 20.209C12.1387 20.248 12.0801 20.2773 12.002 20.2969C11.7676 20.4141 11.6211 20.502 11.5625 20.5605C11.5039 20.6191 11.4258 20.6387 11.3281 20.6191C11.0938 20.7168 10.918 20.7754 10.8008 20.7949C10.7031 20.8145 10.5957 20.8438 10.4785 20.8828C10.2832 20.8828 10.127 20.8828 10.0098 20.8828C9.89258 20.8633 9.77539 20.8535 9.6582 20.8535C9.46289 20.8535 9.31641 20.834 9.21875 20.7949C9.14062 20.7559 9.05273 20.7266 8.95508 20.707C8.79883 20.7461 8.71094 20.7461 8.69141 20.707C8.67188 20.668 8.65234 20.6484 8.63281 20.6484C8.45703 20.5898 8.33984 20.5605 8.28125 20.5605C8.22266 20.541 8.19336 20.5117 8.19336 20.4727C8.07617 20.4336 7.98828 20.4043 7.92969 20.3848C7.89062 20.3457 7.8125 20.3164 7.69531 20.2969C7.57812 20.1797 7.5 20.1016 7.46094 20.0625C7.42188 19.9844 7.36328 19.9355 7.28516 19.916C7.22656 19.877 7.17773 19.8184 7.13867 19.7402C6.94336 19.6035 6.86523 19.5254 6.9043 19.5059C6.80664 19.4082 6.70898 19.3105 6.61133 19.2129C6.51367 19.0957 6.44531 18.959 6.40625 18.8027C6.32812 18.7441 6.25 18.6367 6.17188 18.4805C6.11328 18.4023 6.08398 18.3438 6.08398 18.3047C6.08398 18.2461 6.07422 18.1973 6.05469 18.1582C5.99609 17.9824 5.9668 17.8555 5.9668 17.7773C5.98633 17.6797 5.9668 17.6113 5.9082 17.5723C5.92773 17.4746 5.91797 17.3965 5.87891 17.3379C5.83984 17.2793 5.80078 17.2207 5.76172 17.1621C5.82031 17.0645 5.83008 16.9473 5.79102 16.8105C5.77148 16.6738 5.79102 16.5273 5.84961 16.3711C5.88867 16.0977 5.89844 15.9316 5.87891 15.873C5.85938 15.7949 5.85938 15.7266 5.87891 15.668C5.95703 15.4727 5.99609 15.3457 5.99609 15.2871C6.01562 15.209 6.03516 15.1309 6.05469 15.0527C6.01562 14.7793 6.01562 14.623 6.05469 14.584C6.11328 14.5254 6.17188 14.4668 6.23047 14.4082C6.32812 14.3887 6.43555 14.3496 6.55273 14.291C6.66992 14.2324 6.72852 14.125 6.72852 13.9688C6.8457 13.8906 6.93359 13.8027 6.99219 13.7051C7.07031 13.6074 7.1582 13.5098 7.25586 13.4121C7.45117 13.2168 7.56836 13.0898 7.60742 13.0312C7.70508 12.9922 7.80273 12.9629 7.90039 12.9434C8.01758 12.9043 8.10547 12.8359 8.16406 12.7383C8.26172 12.7383 8.33984 12.7285 8.39844 12.709C8.45703 12.6895 8.51562 12.6602 8.57422 12.6211C8.73047 12.4844 8.82812 12.4062 8.86719 12.3867C8.92578 12.3672 8.97461 12.3379 9.01367 12.2988C9.11133 12.3184 9.16992 12.3086 9.18945 12.2695C9.22852 12.2109 9.27734 12.1719 9.33594 12.1523C9.57031 12.1523 9.7168 12.1426 9.77539 12.123C9.83398 12.084 9.90234 12.0645 9.98047 12.0645C10.2734 12.0449 10.498 12.0352 10.6543 12.0352C10.8301 12.0156 10.9863 12.0059 11.123 12.0059C11.1621 12.0449 11.2207 12.0645 11.2988 12.0645C11.3965 12.0645 11.4746 12.084 11.5332 12.123C11.6309 12.1426 11.6895 12.1719 11.709 12.2109C11.7285 12.2305 11.7773 12.2402 11.8555 12.2402C11.8945 12.2988 11.9434 12.3477 12.002 12.3867C12.0801 12.4258 12.1387 12.4746 12.1777 12.5332C12.2559 12.7871 12.3145 12.9336 12.3535 12.9727C12.3926 13.0117 12.4219 13.0605 12.4414 13.1191C12.4219 13.3145 12.4023 13.4219 12.3828 13.4414C12.3633 13.4414 12.3535 13.4512 12.3535 13.4707C12.334 13.6074 12.3047 13.6953 12.2656 13.7344C12.2461 13.7539 12.2559 13.7832 12.2949 13.8223C12.2559 13.8613 12.2168 13.9102 12.1777 13.9688C12.1387 14.0078 12.1289 14.0859 12.1484 14.2031C12.0312 14.3398 11.9336 14.4375 11.8555 14.4961C11.7773 14.5352 11.7188 14.5742 11.6797 14.6133C11.5625 14.6914 11.4551 14.75 11.3574 14.7891C11.3184 14.8477 11.2598 14.8965 11.1816 14.9355C11.123 14.9551 11.0742 14.9941 11.0352 15.0527C10.7617 15.1699 10.5273 15.248 10.332 15.2871C10.1367 15.3066 9.96094 15.3652 9.80469 15.4629C9.66797 15.4238 9.58984 15.4238 9.57031 15.4629C9.55078 15.502 9.52148 15.5215 9.48242 15.5215C9.3457 15.502 9.21875 15.5117 9.10156 15.5508C9.04297 15.5703 8.98438 15.5898 8.92578 15.6094C8.86719 15.6289 8.79883 15.6191 8.7207 15.5801C8.52539 15.5801 8.34961 15.6094 8.19336 15.668C8.05664 15.707 7.95898 15.6875 7.90039 15.6094C7.80273 15.6484 7.69531 15.6484 7.57812 15.6094C7.46094 15.5703 7.35352 15.5312 7.25586 15.4922L6.96289 15.5215ZM11.3281 12.9434C11.1133 12.8848 10.9473 12.8164 10.8301 12.7383C10.7715 12.7383 10.7031 12.7578 10.625 12.7969C10.5469 12.8164 10.4883 12.8262 10.4492 12.8262C10.2539 12.8066 10.1367 12.8066 10.0977 12.8262C10.0586 12.8262 10.0195 12.8359 9.98047 12.8555C9.70703 12.9531 9.54102 13.0117 9.48242 13.0312C9.42383 13.0508 9.36523 13.0801 9.30664 13.1191C9.20898 13.1191 9.14062 13.1387 9.10156 13.1777C9.08203 13.2168 9.02344 13.2363 8.92578 13.2363C8.88672 13.2949 8.83789 13.3438 8.7793 13.3828C8.74023 13.4023 8.70117 13.4316 8.66211 13.4707C8.4668 13.5684 8.36914 13.627 8.36914 13.6465C8.31055 13.6855 8.26172 13.7148 8.22266 13.7344C8.18359 13.7539 8.125 13.7832 8.04688 13.8223C7.98828 13.9199 7.91016 14.0176 7.8125 14.1152C7.73438 14.2129 7.64648 14.3105 7.54883 14.4082C7.4707 14.5059 7.42188 14.5742 7.40234 14.6133C7.40234 14.6328 7.39258 14.6621 7.37305 14.7012C7.45117 14.7012 7.50977 14.7207 7.54883 14.7598C7.60742 14.7793 7.67578 14.7793 7.75391 14.7598C7.87109 14.8379 7.95898 14.8672 8.01758 14.8477C8.0957 14.8281 8.18359 14.8184 8.28125 14.8184C8.47656 14.8379 8.58398 14.8477 8.60352 14.8477C8.64258 14.8281 8.68164 14.8184 8.7207 14.8184C8.75977 14.8184 8.80859 14.8281 8.86719 14.8477C8.92578 14.8672 8.98438 14.8672 9.04297 14.8477C9.21875 14.8086 9.31641 14.7988 9.33594 14.8184C9.375 14.8184 9.4043 14.8086 9.42383 14.7891C9.50195 14.7695 9.56055 14.75 9.59961 14.7305C9.6582 14.6914 9.7168 14.6719 9.77539 14.6719C9.91211 14.6719 10.0098 14.6523 10.0684 14.6133C10.127 14.5742 10.1855 14.5742 10.2441 14.6133C10.5176 14.3984 10.7422 14.291 10.918 14.291C11.1133 14.0957 11.2305 13.9883 11.2695 13.9688C11.3281 13.9297 11.3672 13.8711 11.3867 13.793C11.543 13.6367 11.6113 13.5293 11.5918 13.4707C11.5723 13.3926 11.582 13.3047 11.6211 13.207C11.543 13.207 11.4844 13.1777 11.4453 13.1191C11.4258 13.041 11.3867 12.9824 11.3281 12.9434ZM20.6738 5.41406C20.6348 5.57031 20.6641 5.69727 20.7617 5.79492C20.7422 5.91211 20.7227 6.0293 20.7031 6.14648C20.7031 6.24414 20.7129 6.35156 20.7324 6.46875C20.7324 6.64453 20.7324 6.73242 20.7324 6.73242C20.752 6.73242 20.7617 6.75195 20.7617 6.79102C20.7812 6.84961 20.7617 6.92773 20.7031 7.02539C20.6445 7.12305 20.6055 7.18164 20.5859 7.20117C20.5859 7.29883 20.5664 7.37695 20.5273 7.43555C20.4883 7.47461 20.4688 7.51367 20.4688 7.55273C20.3711 7.72852 20.293 7.82617 20.2344 7.8457C20.0781 8.04102 19.9609 8.17773 19.8828 8.25586C19.8047 8.33398 19.7363 8.42188 19.6777 8.51953C19.6191 8.55859 19.5605 8.58789 19.502 8.60742C19.4434 8.62695 19.3945 8.67578 19.3555 8.75391C19.1992 8.83203 19.082 8.90039 19.0039 8.95898C18.8672 9.11523 18.7891 9.19336 18.7695 9.19336C18.75 9.19336 18.7305 9.20312 18.7109 9.22266C18.5742 9.28125 18.4668 9.33008 18.3887 9.36914C18.3105 9.4082 18.2227 9.45703 18.125 9.51562C17.8711 9.63281 17.7051 9.71094 17.627 9.75C17.5684 9.76953 17.5 9.78906 17.4219 9.80859C17.2266 9.88672 17.0703 9.95508 16.9531 10.0137C16.8555 10.0723 16.7578 10.1211 16.6602 10.1602C16.4453 10.1797 16.3086 10.1895 16.25 10.1895C16.2109 10.1895 16.1719 10.209 16.1328 10.248C16.0352 10.2285 15.9375 10.2188 15.8398 10.2188C15.7422 10.1992 15.6543 10.209 15.5762 10.248C15.5566 10.4434 15.5273 10.6094 15.4883 10.7461C15.4688 10.8633 15.4785 10.9609 15.5176 11.0391C15.4785 11.2344 15.459 11.3418 15.459 11.3613C15.459 11.4785 15.4883 11.5957 15.5469 11.7129C15.4883 11.9473 15.459 12.123 15.459 12.2402C15.459 12.3379 15.498 12.416 15.5762 12.4746C15.5371 12.5527 15.5078 12.6504 15.4883 12.7676C15.4883 12.8848 15.5078 12.9727 15.5469 13.0312C15.5078 13.207 15.5078 13.334 15.5469 13.4121C15.5469 13.6074 15.5371 13.7051 15.5176 13.7051C15.498 13.7051 15.4883 13.7148 15.4883 13.7344C15.5078 13.8906 15.5176 14.0273 15.5176 14.1445C15.5176 14.2617 15.5273 14.3691 15.5469 14.4668C15.5859 14.6035 15.5957 14.7012 15.5762 14.7598C15.5566 14.7988 15.5664 14.8477 15.6055 14.9062C15.6641 15.1211 15.6836 15.2676 15.6641 15.3457C15.6641 15.4238 15.6934 15.4824 15.752 15.5215C15.791 15.7168 15.791 15.9023 15.752 16.0781C15.7129 16.2344 15.7422 16.3809 15.8398 16.5176C15.8203 16.6152 15.8203 16.6934 15.8398 16.752C15.8594 16.791 15.8887 16.8301 15.9277 16.8691C15.9473 17.0449 15.957 17.1523 15.957 17.1914C15.957 17.2109 15.9766 17.2305 16.0156 17.25C16.1328 17.0547 16.2109 16.9473 16.25 16.9277C16.2305 16.8691 16.2402 16.8105 16.2793 16.752C16.3184 16.6934 16.3574 16.6152 16.3965 16.5176C16.4355 16.4395 16.4648 16.3613 16.4844 16.2832C16.5234 16.2051 16.5723 16.1465 16.6309 16.1074C16.709 15.9512 16.748 15.8535 16.748 15.8145C16.748 15.7754 16.7676 15.7461 16.8066 15.7266C16.8457 15.6289 16.8848 15.541 16.9238 15.4629C16.9629 15.3652 16.9824 15.2871 16.9824 15.2285C17.0801 15.1895 17.1484 15.1309 17.1875 15.0527C17.2266 14.9746 17.2754 14.9062 17.334 14.8477C17.373 14.6719 17.4414 14.5547 17.5391 14.4961C17.7148 14.3984 17.8027 14.3398 17.8027 14.3203C17.8027 14.3008 17.8223 14.2715 17.8613 14.2324C18.0371 14.0566 18.1348 13.9492 18.1543 13.9102C18.4082 13.8125 18.5547 13.7441 18.5938 13.7051C18.6328 13.6465 18.6914 13.6074 18.7695 13.5879C18.9648 13.5488 19.082 13.4902 19.1211 13.4121C19.3164 13.4316 19.4629 13.4121 19.5605 13.3535C19.6387 13.3535 19.6875 13.3633 19.707 13.3828C19.7461 13.3828 19.8047 13.3633 19.8828 13.3242C20 13.3633 20.1172 13.373 20.2344 13.3535C20.3711 13.4121 20.498 13.4707 20.6152 13.5293C20.7324 13.5879 20.8594 13.6367 20.9961 13.6758C21.1133 13.832 21.1914 13.9102 21.2305 13.9102C21.2695 13.8906 21.2891 13.9004 21.2891 13.9395C21.3477 13.9785 21.377 14.0371 21.377 14.1152C21.3965 14.1738 21.4648 14.2129 21.582 14.2324C21.6016 14.3301 21.6406 14.418 21.6992 14.4961C21.7578 14.5547 21.7969 14.6328 21.8164 14.7305C21.9141 14.9258 21.9629 15.0234 21.9629 15.0234C21.9824 15.0234 21.9922 15.043 21.9922 15.082C22.0117 15.1992 22.041 15.3457 22.0801 15.5215C22.1387 15.6582 22.1582 15.7461 22.1387 15.7852C22.1191 15.8242 22.1387 15.8535 22.1973 15.873C22.2168 16.0879 22.2168 16.2539 22.1973 16.3711C22.1973 16.4883 22.2266 16.6152 22.2852 16.752C22.2461 17.0059 22.2461 17.1523 22.2852 17.1914C22.2461 17.2891 22.2168 17.377 22.1973 17.4551C22.1973 17.5332 22.1973 17.6211 22.1973 17.7188C22.1777 17.8945 22.1582 18.002 22.1387 18.041C22.1191 18.0605 22.0996 18.0898 22.0801 18.1289C22.0215 18.3438 22.002 18.4805 22.0215 18.5391C22.041 18.5977 22.041 18.6465 22.0215 18.6855C21.9043 18.9199 21.8359 19.0566 21.8164 19.0957C21.7969 19.1152 21.7676 19.1738 21.7285 19.2715C21.6504 19.5449 21.5723 19.7207 21.4941 19.7988C21.4355 19.8574 21.3965 19.9355 21.377 20.0332C21.3184 20.0723 21.2695 20.1211 21.2305 20.1797C21.1914 20.2383 21.123 20.2676 21.0254 20.2676C20.9473 20.4824 20.8984 20.5898 20.8789 20.5898C20.8594 20.5703 20.8398 20.5703 20.8203 20.5898L20.5566 20.7949C20.5176 20.834 20.4492 20.873 20.3516 20.9121C20.2734 20.9512 20.2148 21 20.1758 21.0586C20.0391 21.0586 19.9316 21.0879 19.8535 21.1465C19.8145 21.1855 19.7656 21.2148 19.707 21.2344C19.668 21.2734 19.6289 21.3125 19.5898 21.3516C19.3945 21.4297 19.2871 21.4785 19.2676 21.498C19.248 21.5176 19.2188 21.5371 19.1797 21.5566C19.0039 21.5566 18.9062 21.5566 18.8867 21.5566C18.8672 21.5762 18.8477 21.5859 18.8281 21.5859C18.6914 21.5664 18.584 21.5371 18.5059 21.498C18.4082 21.4785 18.3008 21.4688 18.1836 21.4688C18.0664 21.4688 17.959 21.4492 17.8613 21.4102C17.6465 21.4297 17.5391 21.4102 17.5391 21.3516C17.5391 21.293 17.4902 21.2734 17.3926 21.293C17.373 21.2148 17.334 21.1562 17.2754 21.1172C17.2168 21.0977 17.1582 21.0684 17.0996 21.0293C16.9434 21.1465 16.8555 21.2051 16.8359 21.2051C16.8164 21.2246 16.7676 21.2148 16.6895 21.1758C16.5918 21.332 16.4355 21.3809 16.2207 21.3223C16.1621 21.1074 16.0938 20.9805 16.0156 20.9414C15.9375 20.7266 15.8887 20.5898 15.8691 20.5312C15.8496 20.4727 15.8398 20.4141 15.8398 20.3555C15.8203 20.0625 15.791 19.8965 15.752 19.8574C15.7129 19.7988 15.6738 19.7402 15.6348 19.6816C15.6934 19.584 15.6934 19.4863 15.6348 19.3887C15.5957 19.291 15.5566 19.1934 15.5176 19.0957C15.5566 18.9785 15.5664 18.8711 15.5469 18.7734C15.5273 18.6562 15.498 18.5488 15.459 18.4512C15.3809 18.2363 15.332 18.1289 15.3125 18.1289C15.3125 18.1094 15.3125 18.0898 15.3125 18.0703C15.2734 18.0117 15.2344 17.9629 15.1953 17.9238C15.1758 17.8848 15.166 17.8359 15.166 17.7773C15.1465 17.5039 15.1074 17.3086 15.0488 17.1914C15.0098 17.0742 14.9707 16.957 14.9316 16.8398C14.9316 16.6641 14.9316 16.5664 14.9316 16.5469C14.9512 16.5273 14.9609 16.5078 14.9609 16.4883C14.8828 16.4297 14.8535 16.3613 14.873 16.2832C14.8926 16.1855 14.8828 16.1172 14.8438 16.0781C14.8047 15.8633 14.7852 15.7461 14.7852 15.7266C14.7852 15.6875 14.7754 15.6484 14.7559 15.6094C14.7559 15.4141 14.7559 15.2871 14.7559 15.2285C14.7754 15.1504 14.7754 15.082 14.7559 15.0234C14.6973 14.7891 14.668 14.6719 14.668 14.6719C14.6875 14.6719 14.6875 14.6621 14.668 14.6426C14.6289 14.4668 14.6094 14.3691 14.6094 14.3496C14.6289 14.3105 14.6191 14.2715 14.5801 14.2324C14.6387 14.0566 14.6484 13.959 14.6094 13.9395C14.5898 13.9199 14.5801 13.8809 14.5801 13.8223C14.6777 13.7441 14.7168 13.6367 14.6973 13.5C14.6582 13.3047 14.6387 13.1973 14.6387 13.1777C14.6582 13.1387 14.668 13.0996 14.668 13.0605C14.6484 12.9043 14.6289 12.7969 14.6094 12.7383C14.6094 12.6602 14.5996 12.5918 14.5801 12.5332C14.6191 12.4941 14.6289 12.4453 14.6094 12.3867C14.6094 12.3086 14.6191 12.2402 14.6387 12.1816C14.541 11.9863 14.5117 11.8789 14.5508 11.8594C14.5898 11.8398 14.6094 11.8203 14.6094 11.8008C14.6289 11.5664 14.6289 11.4395 14.6094 11.4199C14.6094 11.4004 14.6191 11.3711 14.6387 11.332C14.6777 11.1758 14.6875 11.0684 14.668 11.0098C14.6484 10.9316 14.6387 10.873 14.6387 10.834C14.6582 10.6387 14.6582 10.5117 14.6387 10.4531C14.6191 10.3945 14.5996 10.3359 14.5801 10.2773C14.5996 10.1797 14.6289 10.1113 14.668 10.0723C14.707 10.0332 14.707 9.97461 14.668 9.89648C14.4531 9.75977 14.3262 9.68164 14.2871 9.66211C14.248 9.64258 14.209 9.61328 14.1699 9.57422C14.1309 9.53516 14.0918 9.49609 14.0527 9.45703C14.0332 9.41797 13.9844 9.38867 13.9062 9.36914C13.9062 9.21289 13.8379 9.0957 13.7012 9.01758C13.7402 8.91992 13.7402 8.82227 13.7012 8.72461C13.6816 8.62695 13.6914 8.5293 13.7305 8.43164C13.7695 8.35352 13.8086 8.29492 13.8477 8.25586C13.9062 8.2168 13.9551 8.16797 13.9941 8.10938C14.0918 8.14844 14.1699 8.17773 14.2285 8.19727C14.2871 8.19727 14.3652 8.2168 14.4629 8.25586C14.541 8.45117 14.5703 8.57812 14.5508 8.63672C14.5312 8.67578 14.5312 8.71484 14.5508 8.75391C14.7461 8.96875 14.8438 9.07617 14.8438 9.07617C14.9023 9.07617 14.9414 9.02734 14.9609 8.92969C15 8.83203 15 8.74414 14.9609 8.66602C15.1172 8.4707 15.1855 8.35352 15.166 8.31445C15.166 8.27539 15.1758 8.23633 15.1953 8.19727C15.2344 8.11914 15.2734 8.06055 15.3125 8.02148C15.3711 7.96289 15.4199 7.88477 15.459 7.78711C15.5176 7.55273 15.5664 7.41602 15.6055 7.37695C15.6641 7.31836 15.6934 7.23047 15.6934 7.11328C15.8301 6.97656 15.8789 6.89844 15.8398 6.87891C15.8203 6.83984 15.8301 6.81055 15.8691 6.79102C15.9082 6.71289 15.9375 6.64453 15.957 6.58594C15.9961 6.50781 16.0352 6.41992 16.0742 6.32227C16.1328 6.22461 16.1719 6.16602 16.1914 6.14648C16.2305 6.12695 16.2598 6.09766 16.2793 6.05859C16.3965 5.90234 16.4746 5.80469 16.5137 5.76562C16.6113 5.72656 16.6699 5.6875 16.6895 5.64844C16.7285 5.60937 16.7676 5.59961 16.8066 5.61914C16.9043 5.48242 16.9531 5.4043 16.9531 5.38477C16.9727 5.36523 17.002 5.33594 17.041 5.29688C17.1777 5.21875 17.2461 5.16992 17.2461 5.15039C17.2461 5.13086 17.2656 5.11133 17.3047 5.0918C17.5195 4.95508 17.6465 4.89648 17.6855 4.91602C17.7246 4.87695 17.7637 4.83789 17.8027 4.79883C17.8613 4.75977 17.9102 4.7207 17.9492 4.68164C18.1641 4.58398 18.2812 4.54492 18.3008 4.56445C18.3398 4.56445 18.3789 4.55469 18.418 4.53516C18.5938 4.45703 18.75 4.4082 18.8867 4.38867C19.1211 4.4082 19.248 4.42773 19.2676 4.44727C19.3066 4.44727 19.3359 4.4375 19.3555 4.41797C19.3945 4.45703 19.4434 4.48633 19.502 4.50586C19.5605 4.52539 19.6094 4.55469 19.6484 4.59375C19.7461 4.59375 19.8145 4.60352 19.8535 4.62305C19.9121 4.62305 19.9805 4.65234 20.0586 4.71094C20.1758 4.80859 20.2246 4.87695 20.2051 4.91602C20.2051 4.93555 20.2441 4.95508 20.3223 4.97461C20.3418 5.15039 20.459 5.29688 20.6738 5.41406ZM16.8066 9.39844C16.9629 9.37891 17.0605 9.35938 17.0996 9.33984C17.1582 9.32031 17.207 9.29102 17.2461 9.25195C17.3828 9.21289 17.4902 9.14453 17.5684 9.04688C17.6465 9.06641 17.7051 9.05664 17.7441 9.01758C17.8027 8.95898 17.8809 8.92969 17.9785 8.92969C18.1543 8.8125 18.252 8.74414 18.2715 8.72461C18.3105 8.70508 18.3594 8.69531 18.418 8.69531C18.457 8.63672 18.5059 8.58789 18.5645 8.54883C18.623 8.49023 18.6914 8.44141 18.7695 8.40234C18.8281 8.36328 18.8867 8.32422 18.9453 8.28516C19.0039 8.22656 19.082 8.1875 19.1797 8.16797C19.3164 8.01172 19.3848 7.92383 19.3848 7.9043C19.4043 7.86523 19.4238 7.83594 19.4434 7.81641C19.502 7.75781 19.5508 7.69922 19.5898 7.64062C19.6289 7.58203 19.6777 7.5332 19.7363 7.49414C19.7363 7.39648 19.7656 7.32812 19.8242 7.28906C19.8828 7.25 19.9316 7.20117 19.9707 7.14258C19.9902 7.02539 20 6.94727 20 6.9082C20.0195 6.86914 20.0391 6.82031 20.0586 6.76172C20.0586 6.72266 20.0488 6.67383 20.0293 6.61523C20.0098 6.53711 20 6.47852 20 6.43945C20.0391 6.2832 20.0488 6.17578 20.0293 6.11719C20.0098 6.05859 19.9902 6 19.9707 5.94141C19.9707 5.82422 19.9512 5.74609 19.9121 5.70703C19.8926 5.64844 19.8828 5.59961 19.8828 5.56055C19.8242 5.52148 19.7559 5.47266 19.6777 5.41406C19.6191 5.35547 19.5703 5.29688 19.5312 5.23828C19.3359 5.16016 19.209 5.12109 19.1504 5.12109C19.0918 5.12109 19.0137 5.12109 18.916 5.12109C18.8184 5.14062 18.7402 5.16016 18.6816 5.17969C18.6426 5.19922 18.5742 5.20898 18.4766 5.20898C18.3984 5.28711 18.3105 5.35547 18.2129 5.41406C18.1152 5.45313 18.0371 5.53125 17.9785 5.64844C17.8809 5.70703 17.793 5.74609 17.7148 5.76562C17.6562 5.78516 17.6172 5.83398 17.5977 5.91211C17.5195 5.91211 17.4609 5.94141 17.4219 6C17.3828 6.05859 17.3438 6.10742 17.3047 6.14648C17.1875 6.24414 17.0898 6.33203 17.0117 6.41016C16.9336 6.48828 16.8652 6.57617 16.8066 6.67383C16.748 6.79102 16.709 6.87891 16.6895 6.9375C16.6699 6.99609 16.6406 7.02539 16.6016 7.02539C16.6016 7.16211 16.5527 7.28906 16.4551 7.40625C16.3574 7.50391 16.2988 7.63086 16.2793 7.78711C16.123 8.04102 16.0156 8.29492 15.957 8.54883C15.9375 8.72461 15.9082 8.85156 15.8691 8.92969C15.8301 9.16406 15.8008 9.29102 15.7812 9.31055C15.7617 9.33008 15.752 9.38867 15.752 9.48633C15.9082 9.54492 16.0938 9.57422 16.3086 9.57422C16.543 9.55469 16.709 9.49609 16.8066 9.39844ZM20.1758 14.1445C20.0195 14.0859 19.8633 14.0762 19.707 14.1152C19.5508 14.1348 19.3945 14.1641 19.2383 14.2031C19.1992 14.2422 19.1406 14.2715 19.0625 14.291C19.0039 14.3105 18.9258 14.3301 18.8281 14.3496C18.7891 14.3887 18.7402 14.4277 18.6816 14.4668C18.6426 14.4863 18.5938 14.4961 18.5352 14.4961C18.4961 14.5742 18.4473 14.623 18.3887 14.6426C18.3496 14.6621 18.3301 14.7207 18.3301 14.8184C18.1738 14.8574 18.0566 14.9551 17.9785 15.1113C17.9199 15.2676 17.832 15.3945 17.7148 15.4922C17.7148 15.5898 17.6953 15.668 17.6562 15.7266C17.6172 15.7656 17.5879 15.834 17.5684 15.9316C17.5098 15.9316 17.4707 15.9707 17.4512 16.0488C17.4512 16.1074 17.4414 16.166 17.4219 16.2246C17.207 16.4004 17.1094 16.5078 17.1289 16.5469C17.1484 16.5859 17.1484 16.6543 17.1289 16.752C16.9727 17.0254 16.8848 17.2012 16.8652 17.2793C16.8652 17.3574 16.8262 17.416 16.748 17.4551C16.709 17.6504 16.6797 17.7676 16.6602 17.8066C16.6602 17.8262 16.6406 17.8555 16.6016 17.8945C16.6211 17.9727 16.6211 18.0508 16.6016 18.1289C16.6016 18.207 16.5918 18.2949 16.5723 18.3926C16.5918 18.4902 16.582 18.5586 16.543 18.5977C16.5234 18.6367 16.5137 18.6758 16.5137 18.7148C16.5137 18.8125 16.543 18.9004 16.6016 18.9785C16.6602 19.0371 16.709 19.1055 16.748 19.1836C16.9043 19.2031 17.002 19.2715 17.041 19.3887C17.0215 19.4863 17.0312 19.5547 17.0703 19.5938C17.1094 19.6328 17.1387 19.6719 17.1582 19.7109C17.2363 19.9844 17.334 20.1504 17.4512 20.209C17.5098 20.248 17.5586 20.2871 17.5977 20.3262C17.6562 20.3457 17.6855 20.3945 17.6855 20.4727C17.8223 20.5508 17.9297 20.5898 18.0078 20.5898C18.0859 20.5898 18.1641 20.6094 18.2422 20.6484C18.5156 20.7461 18.7109 20.7754 18.8281 20.7363C18.9648 20.6973 19.082 20.6484 19.1797 20.5898C19.3945 20.5508 19.5312 20.502 19.5898 20.4434C19.668 20.3652 19.7559 20.3066 19.8535 20.2676C20.0488 20.1309 20.1758 20.0625 20.2344 20.0625C20.3125 20.0625 20.3711 20.043 20.4102 20.0039C20.4492 19.8867 20.498 19.8086 20.5566 19.7695C20.6152 19.7109 20.6738 19.6426 20.7324 19.5645C20.7129 19.5254 20.7227 19.4668 20.7617 19.3887C20.8203 19.3105 20.8691 19.2715 20.9082 19.2715C20.8887 19.2129 20.8984 19.1543 20.9375 19.0957C20.9766 19.0176 20.9766 18.9395 20.9375 18.8613C21.0742 18.627 21.1328 18.4902 21.1133 18.4512C21.1719 18.4121 21.2012 18.373 21.2012 18.334C21.2012 18.2754 21.2012 18.207 21.2012 18.1289C21.2598 17.8945 21.2891 17.748 21.2891 17.6895C21.3086 17.6309 21.3281 17.582 21.3477 17.543C21.3281 17.3477 21.3281 17.2402 21.3477 17.2207C21.3672 17.2012 21.377 17.1719 21.377 17.1328C21.377 17.0742 21.3672 17.0059 21.3477 16.9277C21.3281 16.8496 21.3379 16.7812 21.377 16.7227C21.3379 16.6445 21.3184 16.5762 21.3184 16.5176C21.3379 16.4395 21.3477 16.3613 21.3477 16.2832C21.3086 16.0488 21.2891 15.8926 21.2891 15.8145C21.2305 15.6777 21.2012 15.5898 21.2012 15.5508C21.2207 15.4922 21.2207 15.4434 21.2012 15.4043C21.0449 15.2285 20.9668 15.1211 20.9668 15.082C20.9473 14.8867 20.9082 14.7793 20.8496 14.7598C20.8105 14.7207 20.7715 14.6816 20.7324 14.6426C20.6152 14.4668 20.5469 14.3789 20.5273 14.3789C20.5078 14.3789 20.498 14.3594 20.498 14.3203C20.4199 14.3203 20.3516 14.3008 20.293 14.2617C20.2539 14.2227 20.2148 14.1836 20.1758 14.1445Z" fill="white" />
	</g>
	<rect x="1" y="1" width="26" height="26" rx="13" stroke="url(#paint1_linear_410_5)" stroke-width="2" />
	<defs>
		<linearGradient id="paint0_linear_410_5" x1="3.62446" y1="2.31705" x2="24.3746" y2="26.1343" gradientUnits="userSpaceOnUse">
			<stop stop-color="#CD201F" />
			<stop offset="1" stop-color="#FE5196" />
		</linearGradient>
		<linearGradient id="paint1_linear_410_5" x1="5.5" y1="1" x2="23.5" y2="28" gradientUnits="userSpaceOnUse">
			<stop stop-color="#CD201F" />
			<stop offset="1" stop-color="#FE5196" />
		</linearGradient>
		<clipPath id="clip0_410_5">
			<rect x="2" y="2" width="24" height="24" rx="12" fill="white" />
		</clipPath>
	</defs>
</svg>
