<svg width="32" height="32" viewBox="0 0 32 32" fill="none" xmlns="http://www.w3.org/2000/svg">
	<g clip-path="url(#clip0_410_5)">
		<path d="M26.2885 0H7.04487C3.1541 0 0 3.02793 0 6.76307V25.2368C0 28.9719 3.1541 32 7.04487 32H26.2885C30.1792 32 33.3333 28.9719 33.3333 25.2368V6.76307C33.3333 3.02793 30.1792 0 26.2885 0Z" fill="url(#paint0_linear_410_5)" />
		<path d="M8.96289 16.5215C8.88477 16.5605 8.83594 16.6191 8.81641 16.6973C8.81641 16.7754 8.81641 16.8438 8.81641 16.9023C8.69922 17.1953 8.67969 17.3906 8.75781 17.4883C8.69922 17.6445 8.68945 17.8594 8.72852 18.1328C8.74805 18.2695 8.77734 18.4062 8.81641 18.543C8.875 18.6602 8.92383 18.7969 8.96289 18.9531C9.02148 19.0312 9.06055 19.1094 9.08008 19.1875C9.11914 19.2656 9.16797 19.3438 9.22656 19.4219C9.28516 19.5 9.32422 19.5684 9.34375 19.627C9.36328 19.6855 9.41211 19.7246 9.49023 19.7441L9.66602 20.0957C9.88086 20.252 9.99805 20.3594 10.0176 20.418C10.0371 20.457 10.0957 20.4668 10.1934 20.4473C10.2324 20.5254 10.2812 20.5742 10.3398 20.5938C10.418 20.5938 10.4766 20.6328 10.5156 20.7109C10.6914 20.75 10.8379 20.8086 10.9551 20.8867C11.0723 20.9453 11.2383 20.9648 11.4531 20.9453C11.707 20.9844 11.8633 21.0137 11.9219 21.0332C11.9805 21.0332 12.0586 21.0527 12.1562 21.0918C12.293 21.0723 12.3809 21.0527 12.4199 21.0332C12.459 21.0137 12.498 21.0039 12.5371 21.0039C12.752 21.0234 12.8984 21.0137 12.9766 20.9746C13.0547 20.9355 13.1523 20.916 13.2695 20.916C13.3867 20.7988 13.4648 20.75 13.5039 20.7695C13.5625 20.7695 13.582 20.7402 13.5625 20.6816C13.6602 20.6816 13.7285 20.6523 13.7676 20.5938C13.8262 20.5156 13.9141 20.457 14.0312 20.418C14.1289 20.3008 14.1973 20.2227 14.2363 20.1836C14.2949 20.125 14.3535 20.0957 14.4121 20.0957C14.6074 20.0566 14.7148 20.0371 14.7344 20.0371C14.8516 20.2129 14.8906 20.3301 14.8516 20.3887C14.8125 20.4473 14.8027 20.5449 14.8223 20.6816C14.7246 20.7402 14.6465 20.8086 14.5879 20.8867C14.5293 20.9648 14.4707 21.0527 14.4121 21.1504C14.3145 21.1504 14.2363 21.1699 14.1777 21.209C14.1387 21.248 14.0801 21.2773 14.002 21.2969C13.7676 21.4141 13.6211 21.502 13.5625 21.5605C13.5039 21.6191 13.4258 21.6387 13.3281 21.6191C13.0938 21.7168 12.918 21.7754 12.8008 21.7949C12.7031 21.8145 12.5957 21.8438 12.4785 21.8828C12.2832 21.8828 12.127 21.8828 12.0098 21.8828C11.8926 21.8633 11.7754 21.8535 11.6582 21.8535C11.4629 21.8535 11.3164 21.834 11.2188 21.7949C11.1406 21.7559 11.0527 21.7266 10.9551 21.707C10.7988 21.7461 10.7109 21.7461 10.6914 21.707C10.6719 21.668 10.6523 21.6484 10.6328 21.6484C10.457 21.5898 10.3398 21.5605 10.2812 21.5605C10.2227 21.541 10.1934 21.5117 10.1934 21.4727C10.0762 21.4336 9.98828 21.4043 9.92969 21.3848C9.89062 21.3457 9.8125 21.3164 9.69531 21.2969C9.57812 21.1797 9.5 21.1016 9.46094 21.0625C9.42188 20.9844 9.36328 20.9355 9.28516 20.916C9.22656 20.877 9.17773 20.8184 9.13867 20.7402C8.94336 20.6035 8.86523 20.5254 8.9043 20.5059C8.80664 20.4082 8.70898 20.3105 8.61133 20.2129C8.51367 20.0957 8.44531 19.959 8.40625 19.8027C8.32812 19.7441 8.25 19.6367 8.17188 19.4805C8.11328 19.4023 8.08398 19.3438 8.08398 19.3047C8.08398 19.2461 8.07422 19.1973 8.05469 19.1582C7.99609 18.9824 7.9668 18.8555 7.9668 18.7773C7.98633 18.6797 7.9668 18.6113 7.9082 18.5723C7.92773 18.4746 7.91797 18.3965 7.87891 18.3379C7.83984 18.2793 7.80078 18.2207 7.76172 18.1621C7.82031 18.0645 7.83008 17.9473 7.79102 17.8105C7.77148 17.6738 7.79102 17.5273 7.84961 17.3711C7.88867 17.0977 7.89844 16.9316 7.87891 16.873C7.85938 16.7949 7.85938 16.7266 7.87891 16.668C7.95703 16.4727 7.99609 16.3457 7.99609 16.2871C8.01562 16.209 8.03516 16.1309 8.05469 16.0527C8.01562 15.7793 8.01562 15.623 8.05469 15.584C8.11328 15.5254 8.17188 15.4668 8.23047 15.4082C8.32812 15.3887 8.43555 15.3496 8.55273 15.291C8.66992 15.2324 8.72852 15.125 8.72852 14.9688C8.8457 14.8906 8.93359 14.8027 8.99219 14.7051C9.07031 14.6074 9.1582 14.5098 9.25586 14.4121C9.45117 14.2168 9.56836 14.0898 9.60742 14.0312C9.70508 13.9922 9.80273 13.9629 9.90039 13.9434C10.0176 13.9043 10.1055 13.8359 10.1641 13.7383C10.2617 13.7383 10.3398 13.7285 10.3984 13.709C10.457 13.6895 10.5156 13.6602 10.5742 13.6211C10.7305 13.4844 10.8281 13.4062 10.8672 13.3867C10.9258 13.3672 10.9746 13.3379 11.0137 13.2988C11.1113 13.3184 11.1699 13.3086 11.1895 13.2695C11.2285 13.2109 11.2773 13.1719 11.3359 13.1523C11.5703 13.1523 11.7168 13.1426 11.7754 13.123C11.834 13.084 11.9023 13.0645 11.9805 13.0645C12.2734 13.0449 12.498 13.0352 12.6543 13.0352C12.8301 13.0156 12.9863 13.0059 13.123 13.0059C13.1621 13.0449 13.2207 13.0645 13.2988 13.0645C13.3965 13.0645 13.4746 13.084 13.5332 13.123C13.6309 13.1426 13.6895 13.1719 13.709 13.2109C13.7285 13.2305 13.7773 13.2402 13.8555 13.2402C13.8945 13.2988 13.9434 13.3477 14.002 13.3867C14.0801 13.4258 14.1387 13.4746 14.1777 13.5332C14.2559 13.7871 14.3145 13.9336 14.3535 13.9727C14.3926 14.0117 14.4219 14.0605 14.4414 14.1191C14.4219 14.3145 14.4023 14.4219 14.3828 14.4414C14.3633 14.4414 14.3535 14.4512 14.3535 14.4707C14.334 14.6074 14.3047 14.6953 14.2656 14.7344C14.2461 14.7539 14.2559 14.7832 14.2949 14.8223C14.2559 14.8613 14.2168 14.9102 14.1777 14.9688C14.1387 15.0078 14.1289 15.0859 14.1484 15.2031C14.0312 15.3398 13.9336 15.4375 13.8555 15.4961C13.7773 15.5352 13.7188 15.5742 13.6797 15.6133C13.5625 15.6914 13.4551 15.75 13.3574 15.7891C13.3184 15.8477 13.2598 15.8965 13.1816 15.9355C13.123 15.9551 13.0742 15.9941 13.0352 16.0527C12.7617 16.1699 12.5273 16.248 12.332 16.2871C12.1367 16.3066 11.9609 16.3652 11.8047 16.4629C11.668 16.4238 11.5898 16.4238 11.5703 16.4629C11.5508 16.502 11.5215 16.5215 11.4824 16.5215C11.3457 16.502 11.2188 16.5117 11.1016 16.5508C11.043 16.5703 10.9844 16.5898 10.9258 16.6094C10.8672 16.6289 10.7988 16.6191 10.7207 16.5801C10.5254 16.5801 10.3496 16.6094 10.1934 16.668C10.0566 16.707 9.95898 16.6875 9.90039 16.6094C9.80273 16.6484 9.69531 16.6484 9.57812 16.6094C9.46094 16.5703 9.35352 16.5312 9.25586 16.4922L8.96289 16.5215ZM13.3281 13.9434C13.1133 13.8848 12.9473 13.8164 12.8301 13.7383C12.7715 13.7383 12.7031 13.7578 12.625 13.7969C12.5469 13.8164 12.4883 13.8262 12.4492 13.8262C12.2539 13.8066 12.1367 13.8066 12.0977 13.8262C12.0586 13.8262 12.0195 13.8359 11.9805 13.8555C11.707 13.9531 11.541 14.0117 11.4824 14.0312C11.4238 14.0508 11.3652 14.0801 11.3066 14.1191C11.209 14.1191 11.1406 14.1387 11.1016 14.1777C11.082 14.2168 11.0234 14.2363 10.9258 14.2363C10.8867 14.2949 10.8379 14.3438 10.7793 14.3828C10.7402 14.4023 10.7012 14.4316 10.6621 14.4707C10.4668 14.5684 10.3691 14.627 10.3691 14.6465C10.3105 14.6855 10.2617 14.7148 10.2227 14.7344C10.1836 14.7539 10.125 14.7832 10.0469 14.8223C9.98828 14.9199 9.91016 15.0176 9.8125 15.1152C9.73438 15.2129 9.64648 15.3105 9.54883 15.4082C9.4707 15.5059 9.42188 15.5742 9.40234 15.6133C9.40234 15.6328 9.39258 15.6621 9.37305 15.7012C9.45117 15.7012 9.50977 15.7207 9.54883 15.7598C9.60742 15.7793 9.67578 15.7793 9.75391 15.7598C9.87109 15.8379 9.95898 15.8672 10.0176 15.8477C10.0957 15.8281 10.1836 15.8184 10.2812 15.8184C10.4766 15.8379 10.584 15.8477 10.6035 15.8477C10.6426 15.8281 10.6816 15.8184 10.7207 15.8184C10.7598 15.8184 10.8086 15.8281 10.8672 15.8477C10.9258 15.8672 10.9844 15.8672 11.043 15.8477C11.2188 15.8086 11.3164 15.7988 11.3359 15.8184C11.375 15.8184 11.4043 15.8086 11.4238 15.7891C11.502 15.7695 11.5605 15.75 11.5996 15.7305C11.6582 15.6914 11.7168 15.6719 11.7754 15.6719C11.9121 15.6719 12.0098 15.6523 12.0684 15.6133C12.127 15.5742 12.1855 15.5742 12.2441 15.6133C12.5176 15.3984 12.7422 15.291 12.918 15.291C13.1133 15.0957 13.2305 14.9883 13.2695 14.9688C13.3281 14.9297 13.3672 14.8711 13.3867 14.793C13.543 14.6367 13.6113 14.5293 13.5918 14.4707C13.5723 14.3926 13.582 14.3047 13.6211 14.207C13.543 14.207 13.4844 14.1777 13.4453 14.1191C13.4258 14.041 13.3867 13.9824 13.3281 13.9434ZM22.6738 6.41406C22.6348 6.57031 22.6641 6.69727 22.7617 6.79492C22.7422 6.91211 22.7227 7.0293 22.7031 7.14648C22.7031 7.24414 22.7129 7.35156 22.7324 7.46875C22.7324 7.64453 22.7324 7.73242 22.7324 7.73242C22.752 7.73242 22.7617 7.75195 22.7617 7.79102C22.7812 7.84961 22.7617 7.92773 22.7031 8.02539C22.6445 8.12305 22.6055 8.18164 22.5859 8.20117C22.5859 8.29883 22.5664 8.37695 22.5273 8.43555C22.4883 8.47461 22.4688 8.51367 22.4688 8.55273C22.3711 8.72852 22.293 8.82617 22.2344 8.8457C22.0781 9.04102 21.9609 9.17773 21.8828 9.25586C21.8047 9.33398 21.7363 9.42188 21.6777 9.51953C21.6191 9.55859 21.5605 9.58789 21.502 9.60742C21.4434 9.62695 21.3945 9.67578 21.3555 9.75391C21.1992 9.83203 21.082 9.90039 21.0039 9.95898C20.8672 10.1152 20.7891 10.1934 20.7695 10.1934C20.75 10.1934 20.7305 10.2031 20.7109 10.2227C20.5742 10.2812 20.4668 10.3301 20.3887 10.3691C20.3105 10.4082 20.2227 10.457 20.125 10.5156C19.8711 10.6328 19.7051 10.7109 19.627 10.75C19.5684 10.7695 19.5 10.7891 19.4219 10.8086C19.2266 10.8867 19.0703 10.9551 18.9531 11.0137C18.8555 11.0723 18.7578 11.1211 18.6602 11.1602C18.4453 11.1797 18.3086 11.1895 18.25 11.1895C18.2109 11.1895 18.1719 11.209 18.1328 11.248C18.0352 11.2285 17.9375 11.2188 17.8398 11.2188C17.7422 11.1992 17.6543 11.209 17.5762 11.248C17.5566 11.4434 17.5273 11.6094 17.4883 11.7461C17.4688 11.8633 17.4785 11.9609 17.5176 12.0391C17.4785 12.2344 17.459 12.3418 17.459 12.3613C17.459 12.4785 17.4883 12.5957 17.5469 12.7129C17.4883 12.9473 17.459 13.123 17.459 13.2402C17.459 13.3379 17.498 13.416 17.5762 13.4746C17.5371 13.5527 17.5078 13.6504 17.4883 13.7676C17.4883 13.8848 17.5078 13.9727 17.5469 14.0312C17.5078 14.207 17.5078 14.334 17.5469 14.4121C17.5469 14.6074 17.5371 14.7051 17.5176 14.7051C17.498 14.7051 17.4883 14.7148 17.4883 14.7344C17.5078 14.8906 17.5176 15.0273 17.5176 15.1445C17.5176 15.2617 17.5273 15.3691 17.5469 15.4668C17.5859 15.6035 17.5957 15.7012 17.5762 15.7598C17.5566 15.7988 17.5664 15.8477 17.6055 15.9062C17.6641 16.1211 17.6836 16.2676 17.6641 16.3457C17.6641 16.4238 17.6934 16.4824 17.752 16.5215C17.791 16.7168 17.791 16.9023 17.752 17.0781C17.7129 17.2344 17.7422 17.3809 17.8398 17.5176C17.8203 17.6152 17.8203 17.6934 17.8398 17.752C17.8594 17.791 17.8887 17.8301 17.9277 17.8691C17.9473 18.0449 17.957 18.1523 17.957 18.1914C17.957 18.2109 17.9766 18.2305 18.0156 18.25C18.1328 18.0547 18.2109 17.9473 18.25 17.9277C18.2305 17.8691 18.2402 17.8105 18.2793 17.752C18.3184 17.6934 18.3574 17.6152 18.3965 17.5176C18.4355 17.4395 18.4648 17.3613 18.4844 17.2832C18.5234 17.2051 18.5723 17.1465 18.6309 17.1074C18.709 16.9512 18.748 16.8535 18.748 16.8145C18.748 16.7754 18.7676 16.7461 18.8066 16.7266C18.8457 16.6289 18.8848 16.541 18.9238 16.4629C18.9629 16.3652 18.9824 16.2871 18.9824 16.2285C19.0801 16.1895 19.1484 16.1309 19.1875 16.0527C19.2266 15.9746 19.2754 15.9062 19.334 15.8477C19.373 15.6719 19.4414 15.5547 19.5391 15.4961C19.7148 15.3984 19.8027 15.3398 19.8027 15.3203C19.8027 15.3008 19.8223 15.2715 19.8613 15.2324C20.0371 15.0566 20.1348 14.9492 20.1543 14.9102C20.4082 14.8125 20.5547 14.7441 20.5938 14.7051C20.6328 14.6465 20.6914 14.6074 20.7695 14.5879C20.9648 14.5488 21.082 14.4902 21.1211 14.4121C21.3164 14.4316 21.4629 14.4121 21.5605 14.3535C21.6387 14.3535 21.6875 14.3633 21.707 14.3828C21.7461 14.3828 21.8047 14.3633 21.8828 14.3242C22 14.3633 22.1172 14.373 22.2344 14.3535C22.3711 14.4121 22.498 14.4707 22.6152 14.5293C22.7324 14.5879 22.8594 14.6367 22.9961 14.6758C23.1133 14.832 23.1914 14.9102 23.2305 14.9102C23.2695 14.8906 23.2891 14.9004 23.2891 14.9395C23.3477 14.9785 23.377 15.0371 23.377 15.1152C23.3965 15.1738 23.4648 15.2129 23.582 15.2324C23.6016 15.3301 23.6406 15.418 23.6992 15.4961C23.7578 15.5547 23.7969 15.6328 23.8164 15.7305C23.9141 15.9258 23.9629 16.0234 23.9629 16.0234C23.9824 16.0234 23.9922 16.043 23.9922 16.082C24.0117 16.1992 24.041 16.3457 24.0801 16.5215C24.1387 16.6582 24.1582 16.7461 24.1387 16.7852C24.1191 16.8242 24.1387 16.8535 24.1973 16.873C24.2168 17.0879 24.2168 17.2539 24.1973 17.3711C24.1973 17.4883 24.2266 17.6152 24.2852 17.752C24.2461 18.0059 24.2461 18.1523 24.2852 18.1914C24.2461 18.2891 24.2168 18.377 24.1973 18.4551C24.1973 18.5332 24.1973 18.6211 24.1973 18.7188C24.1777 18.8945 24.1582 19.002 24.1387 19.041C24.1191 19.0605 24.0996 19.0898 24.0801 19.1289C24.0215 19.3438 24.002 19.4805 24.0215 19.5391C24.041 19.5977 24.041 19.6465 24.0215 19.6855C23.9043 19.9199 23.8359 20.0566 23.8164 20.0957C23.7969 20.1152 23.7676 20.1738 23.7285 20.2715C23.6504 20.5449 23.5723 20.7207 23.4941 20.7988C23.4355 20.8574 23.3965 20.9355 23.377 21.0332C23.3184 21.0723 23.2695 21.1211 23.2305 21.1797C23.1914 21.2383 23.123 21.2676 23.0254 21.2676C22.9473 21.4824 22.8984 21.5898 22.8789 21.5898C22.8594 21.5703 22.8398 21.5703 22.8203 21.5898L22.5566 21.7949C22.5176 21.834 22.4492 21.873 22.3516 21.9121C22.2734 21.9512 22.2148 22 22.1758 22.0586C22.0391 22.0586 21.9316 22.0879 21.8535 22.1465C21.8145 22.1855 21.7656 22.2148 21.707 22.2344C21.668 22.2734 21.6289 22.3125 21.5898 22.3516C21.3945 22.4297 21.2871 22.4785 21.2676 22.498C21.248 22.5176 21.2188 22.5371 21.1797 22.5566C21.0039 22.5566 20.9062 22.5566 20.8867 22.5566C20.8672 22.5762 20.8477 22.5859 20.8281 22.5859C20.6914 22.5664 20.584 22.5371 20.5059 22.498C20.4082 22.4785 20.3008 22.4688 20.1836 22.4688C20.0664 22.4688 19.959 22.4492 19.8613 22.4102C19.6465 22.4297 19.5391 22.4102 19.5391 22.3516C19.5391 22.293 19.4902 22.2734 19.3926 22.293C19.373 22.2148 19.334 22.1562 19.2754 22.1172C19.2168 22.0977 19.1582 22.0684 19.0996 22.0293C18.9434 22.1465 18.8555 22.2051 18.8359 22.2051C18.8164 22.2246 18.7676 22.2148 18.6895 22.1758C18.5918 22.332 18.4355 22.3809 18.2207 22.3223C18.1621 22.1074 18.0938 21.9805 18.0156 21.9414C17.9375 21.7266 17.8887 21.5898 17.8691 21.5312C17.8496 21.4727 17.8398 21.4141 17.8398 21.3555C17.8203 21.0625 17.791 20.8965 17.752 20.8574C17.7129 20.7988 17.6738 20.7402 17.6348 20.6816C17.6934 20.584 17.6934 20.4863 17.6348 20.3887C17.5957 20.291 17.5566 20.1934 17.5176 20.0957C17.5566 19.9785 17.5664 19.8711 17.5469 19.7734C17.5273 19.6562 17.498 19.5488 17.459 19.4512C17.3809 19.2363 17.332 19.1289 17.3125 19.1289C17.3125 19.1094 17.3125 19.0898 17.3125 19.0703C17.2734 19.0117 17.2344 18.9629 17.1953 18.9238C17.1758 18.8848 17.166 18.8359 17.166 18.7773C17.1465 18.5039 17.1074 18.3086 17.0488 18.1914C17.0098 18.0742 16.9707 17.957 16.9316 17.8398C16.9316 17.6641 16.9316 17.5664 16.9316 17.5469C16.9512 17.5273 16.9609 17.5078 16.9609 17.4883C16.8828 17.4297 16.8535 17.3613 16.873 17.2832C16.8926 17.1855 16.8828 17.1172 16.8438 17.0781C16.8047 16.8633 16.7852 16.7461 16.7852 16.7266C16.7852 16.6875 16.7754 16.6484 16.7559 16.6094C16.7559 16.4141 16.7559 16.2871 16.7559 16.2285C16.7754 16.1504 16.7754 16.082 16.7559 16.0234C16.6973 15.7891 16.668 15.6719 16.668 15.6719C16.6875 15.6719 16.6875 15.6621 16.668 15.6426C16.6289 15.4668 16.6094 15.3691 16.6094 15.3496C16.6289 15.3105 16.6191 15.2715 16.5801 15.2324C16.6387 15.0566 16.6484 14.959 16.6094 14.9395C16.5898 14.9199 16.5801 14.8809 16.5801 14.8223C16.6777 14.7441 16.7168 14.6367 16.6973 14.5C16.6582 14.3047 16.6387 14.1973 16.6387 14.1777C16.6582 14.1387 16.668 14.0996 16.668 14.0605C16.6484 13.9043 16.6289 13.7969 16.6094 13.7383C16.6094 13.6602 16.5996 13.5918 16.5801 13.5332C16.6191 13.4941 16.6289 13.4453 16.6094 13.3867C16.6094 13.3086 16.6191 13.2402 16.6387 13.1816C16.541 12.9863 16.5117 12.8789 16.5508 12.8594C16.5898 12.8398 16.6094 12.8203 16.6094 12.8008C16.6289 12.5664 16.6289 12.4395 16.6094 12.4199C16.6094 12.4004 16.6191 12.3711 16.6387 12.332C16.6777 12.1758 16.6875 12.0684 16.668 12.0098C16.6484 11.9316 16.6387 11.873 16.6387 11.834C16.6582 11.6387 16.6582 11.5117 16.6387 11.4531C16.6191 11.3945 16.5996 11.3359 16.5801 11.2773C16.5996 11.1797 16.6289 11.1113 16.668 11.0723C16.707 11.0332 16.707 10.9746 16.668 10.8965C16.4531 10.7598 16.3262 10.6816 16.2871 10.6621C16.248 10.6426 16.209 10.6133 16.1699 10.5742C16.1309 10.5352 16.0918 10.4961 16.0527 10.457C16.0332 10.418 15.9844 10.3887 15.9062 10.3691C15.9062 10.2129 15.8379 10.0957 15.7012 10.0176C15.7402 9.91992 15.7402 9.82227 15.7012 9.72461C15.6816 9.62695 15.6914 9.5293 15.7305 9.43164C15.7695 9.35352 15.8086 9.29492 15.8477 9.25586C15.9062 9.2168 15.9551 9.16797 15.9941 9.10938C16.0918 9.14844 16.1699 9.17773 16.2285 9.19727C16.2871 9.19727 16.3652 9.2168 16.4629 9.25586C16.541 9.45117 16.5703 9.57812 16.5508 9.63672C16.5312 9.67578 16.5312 9.71484 16.5508 9.75391C16.7461 9.96875 16.8438 10.0762 16.8438 10.0762C16.9023 10.0762 16.9414 10.0273 16.9609 9.92969C17 9.83203 17 9.74414 16.9609 9.66602C17.1172 9.4707 17.1855 9.35352 17.166 9.31445C17.166 9.27539 17.1758 9.23633 17.1953 9.19727C17.2344 9.11914 17.2734 9.06055 17.3125 9.02148C17.3711 8.96289 17.4199 8.88477 17.459 8.78711C17.5176 8.55273 17.5664 8.41602 17.6055 8.37695C17.6641 8.31836 17.6934 8.23047 17.6934 8.11328C17.8301 7.97656 17.8789 7.89844 17.8398 7.87891C17.8203 7.83984 17.8301 7.81055 17.8691 7.79102C17.9082 7.71289 17.9375 7.64453 17.957 7.58594C17.9961 7.50781 18.0352 7.41992 18.0742 7.32227C18.1328 7.22461 18.1719 7.16602 18.1914 7.14648C18.2305 7.12695 18.2598 7.09766 18.2793 7.05859C18.3965 6.90234 18.4746 6.80469 18.5137 6.76562C18.6113 6.72656 18.6699 6.6875 18.6895 6.64844C18.7285 6.60937 18.7676 6.59961 18.8066 6.61914C18.9043 6.48242 18.9531 6.4043 18.9531 6.38477C18.9727 6.36523 19.002 6.33594 19.041 6.29688C19.1777 6.21875 19.2461 6.16992 19.2461 6.15039C19.2461 6.13086 19.2656 6.11133 19.3047 6.0918C19.5195 5.95508 19.6465 5.89648 19.6855 5.91602C19.7246 5.87695 19.7637 5.83789 19.8027 5.79883C19.8613 5.75977 19.9102 5.7207 19.9492 5.68164C20.1641 5.58398 20.2812 5.54492 20.3008 5.56445C20.3398 5.56445 20.3789 5.55469 20.418 5.53516C20.5938 5.45703 20.75 5.4082 20.8867 5.38867C21.1211 5.4082 21.248 5.42773 21.2676 5.44727C21.3066 5.44727 21.3359 5.4375 21.3555 5.41797C21.3945 5.45703 21.4434 5.48633 21.502 5.50586C21.5605 5.52539 21.6094 5.55469 21.6484 5.59375C21.7461 5.59375 21.8145 5.60352 21.8535 5.62305C21.9121 5.62305 21.9805 5.65234 22.0586 5.71094C22.1758 5.80859 22.2246 5.87695 22.2051 5.91602C22.2051 5.93555 22.2441 5.95508 22.3223 5.97461C22.3418 6.15039 22.459 6.29688 22.6738 6.41406ZM18.8066 10.3984C18.9629 10.3789 19.0605 10.3594 19.0996 10.3398C19.1582 10.3203 19.207 10.291 19.2461 10.252C19.3828 10.2129 19.4902 10.1445 19.5684 10.0469C19.6465 10.0664 19.7051 10.0566 19.7441 10.0176C19.8027 9.95898 19.8809 9.92969 19.9785 9.92969C20.1543 9.8125 20.252 9.74414 20.2715 9.72461C20.3105 9.70508 20.3594 9.69531 20.418 9.69531C20.457 9.63672 20.5059 9.58789 20.5645 9.54883C20.623 9.49023 20.6914 9.44141 20.7695 9.40234C20.8281 9.36328 20.8867 9.32422 20.9453 9.28516C21.0039 9.22656 21.082 9.1875 21.1797 9.16797C21.3164 9.01172 21.3848 8.92383 21.3848 8.9043C21.4043 8.86523 21.4238 8.83594 21.4434 8.81641C21.502 8.75781 21.5508 8.69922 21.5898 8.64062C21.6289 8.58203 21.6777 8.5332 21.7363 8.49414C21.7363 8.39648 21.7656 8.32812 21.8242 8.28906C21.8828 8.25 21.9316 8.20117 21.9707 8.14258C21.9902 8.02539 22 7.94727 22 7.9082C22.0195 7.86914 22.0391 7.82031 22.0586 7.76172C22.0586 7.72266 22.0488 7.67383 22.0293 7.61523C22.0098 7.53711 22 7.47852 22 7.43945C22.0391 7.2832 22.0488 7.17578 22.0293 7.11719C22.0098 7.05859 21.9902 7 21.9707 6.94141C21.9707 6.82422 21.9512 6.74609 21.9121 6.70703C21.8926 6.64844 21.8828 6.59961 21.8828 6.56055C21.8242 6.52148 21.7559 6.47266 21.6777 6.41406C21.6191 6.35547 21.5703 6.29688 21.5312 6.23828C21.3359 6.16016 21.209 6.12109 21.1504 6.12109C21.0918 6.12109 21.0137 6.12109 20.916 6.12109C20.8184 6.14062 20.7402 6.16016 20.6816 6.17969C20.6426 6.19922 20.5742 6.20898 20.4766 6.20898C20.3984 6.28711 20.3105 6.35547 20.2129 6.41406C20.1152 6.45313 20.0371 6.53125 19.9785 6.64844C19.8809 6.70703 19.793 6.74609 19.7148 6.76562C19.6562 6.78516 19.6172 6.83398 19.5977 6.91211C19.5195 6.91211 19.4609 6.94141 19.4219 7C19.3828 7.05859 19.3438 7.10742 19.3047 7.14648C19.1875 7.24414 19.0898 7.33203 19.0117 7.41016C18.9336 7.48828 18.8652 7.57617 18.8066 7.67383C18.748 7.79102 18.709 7.87891 18.6895 7.9375C18.6699 7.99609 18.6406 8.02539 18.6016 8.02539C18.6016 8.16211 18.5527 8.28906 18.4551 8.40625C18.3574 8.50391 18.2988 8.63086 18.2793 8.78711C18.123 9.04102 18.0156 9.29492 17.957 9.54883C17.9375 9.72461 17.9082 9.85156 17.8691 9.92969C17.8301 10.1641 17.8008 10.291 17.7812 10.3105C17.7617 10.3301 17.752 10.3887 17.752 10.4863C17.9082 10.5449 18.0938 10.5742 18.3086 10.5742C18.543 10.5547 18.709 10.4961 18.8066 10.3984ZM22.1758 15.1445C22.0195 15.0859 21.8633 15.0762 21.707 15.1152C21.5508 15.1348 21.3945 15.1641 21.2383 15.2031C21.1992 15.2422 21.1406 15.2715 21.0625 15.291C21.0039 15.3105 20.9258 15.3301 20.8281 15.3496C20.7891 15.3887 20.7402 15.4277 20.6816 15.4668C20.6426 15.4863 20.5938 15.4961 20.5352 15.4961C20.4961 15.5742 20.4473 15.623 20.3887 15.6426C20.3496 15.6621 20.3301 15.7207 20.3301 15.8184C20.1738 15.8574 20.0566 15.9551 19.9785 16.1113C19.9199 16.2676 19.832 16.3945 19.7148 16.4922C19.7148 16.5898 19.6953 16.668 19.6562 16.7266C19.6172 16.7656 19.5879 16.834 19.5684 16.9316C19.5098 16.9316 19.4707 16.9707 19.4512 17.0488C19.4512 17.1074 19.4414 17.166 19.4219 17.2246C19.207 17.4004 19.1094 17.5078 19.1289 17.5469C19.1484 17.5859 19.1484 17.6543 19.1289 17.752C18.9727 18.0254 18.8848 18.2012 18.8652 18.2793C18.8652 18.3574 18.8262 18.416 18.748 18.4551C18.709 18.6504 18.6797 18.7676 18.6602 18.8066C18.6602 18.8262 18.6406 18.8555 18.6016 18.8945C18.6211 18.9727 18.6211 19.0508 18.6016 19.1289C18.6016 19.207 18.5918 19.2949 18.5723 19.3926C18.5918 19.4902 18.582 19.5586 18.543 19.5977C18.5234 19.6367 18.5137 19.6758 18.5137 19.7148C18.5137 19.8125 18.543 19.9004 18.6016 19.9785C18.6602 20.0371 18.709 20.1055 18.748 20.1836C18.9043 20.2031 19.002 20.2715 19.041 20.3887C19.0215 20.4863 19.0312 20.5547 19.0703 20.5938C19.1094 20.6328 19.1387 20.6719 19.1582 20.7109C19.2363 20.9844 19.334 21.1504 19.4512 21.209C19.5098 21.248 19.5586 21.2871 19.5977 21.3262C19.6562 21.3457 19.6855 21.3945 19.6855 21.4727C19.8223 21.5508 19.9297 21.5898 20.0078 21.5898C20.0859 21.5898 20.1641 21.6094 20.2422 21.6484C20.5156 21.7461 20.7109 21.7754 20.8281 21.7363C20.9648 21.6973 21.082 21.6484 21.1797 21.5898C21.3945 21.5508 21.5312 21.502 21.5898 21.4434C21.668 21.3652 21.7559 21.3066 21.8535 21.2676C22.0488 21.1309 22.1758 21.0625 22.2344 21.0625C22.3125 21.0625 22.3711 21.043 22.4102 21.0039C22.4492 20.8867 22.498 20.8086 22.5566 20.7695C22.6152 20.7109 22.6738 20.6426 22.7324 20.5645C22.7129 20.5254 22.7227 20.4668 22.7617 20.3887C22.8203 20.3105 22.8691 20.2715 22.9082 20.2715C22.8887 20.2129 22.8984 20.1543 22.9375 20.0957C22.9766 20.0176 22.9766 19.9395 22.9375 19.8613C23.0742 19.627 23.1328 19.4902 23.1133 19.4512C23.1719 19.4121 23.2012 19.373 23.2012 19.334C23.2012 19.2754 23.2012 19.207 23.2012 19.1289C23.2598 18.8945 23.2891 18.748 23.2891 18.6895C23.3086 18.6309 23.3281 18.582 23.3477 18.543C23.3281 18.3477 23.3281 18.2402 23.3477 18.2207C23.3672 18.2012 23.377 18.1719 23.377 18.1328C23.377 18.0742 23.3672 18.0059 23.3477 17.9277C23.3281 17.8496 23.3379 17.7812 23.377 17.7227C23.3379 17.6445 23.3184 17.5762 23.3184 17.5176C23.3379 17.4395 23.3477 17.3613 23.3477 17.2832C23.3086 17.0488 23.2891 16.8926 23.2891 16.8145C23.2305 16.6777 23.2012 16.5898 23.2012 16.5508C23.2207 16.4922 23.2207 16.4434 23.2012 16.4043C23.0449 16.2285 22.9668 16.1211 22.9668 16.082C22.9473 15.8867 22.9082 15.7793 22.8496 15.7598C22.8105 15.7207 22.7715 15.6816 22.7324 15.6426C22.6152 15.4668 22.5469 15.3789 22.5273 15.3789C22.5078 15.3789 22.498 15.3594 22.498 15.3203C22.4199 15.3203 22.3516 15.3008 22.293 15.2617C22.2539 15.2227 22.2148 15.1836 22.1758 15.1445Z" fill="white" />
	</g>
	<defs>
		<linearGradient id="paint0_linear_410_5" x1="2.16595" y1="0.422736" x2="29.8327" y2="32.179" gradientUnits="userSpaceOnUse">
			<stop stop-color="#CD201F" />
			<stop offset="1" stop-color="#FE5196" />
		</linearGradient>
		<clipPath id="clip0_410_5">
			<rect width="32" height="32" rx="16" fill="white" />
		</clipPath>
	</defs>
</svg>
