<svg width="32" height="32" viewBox="0 0 32 32" fill="none" xmlns="http://www.w3.org/2000/svg">
	<g clip-path="url(#clip0_410_5)">
		<path d="M26.2885 0H7.04487C3.1541 0 0 3.02793 0 6.76307V25.2368C0 28.9719 3.1541 32 7.04487 32H26.2885C30.1792 32 33.3333 28.9719 33.3333 25.2368V6.76307C33.3333 3.02793 30.1792 0 26.2885 0Z" fill="url(#paint0_linear_410_5)" />
		<path d="M11.082 14.9336C11.0365 14.9245 10.9954 14.9199 10.959 14.9199C10.9225 14.9199 10.8815 14.9199 10.8359 14.9199C10.4896 14.9199 10.166 14.9883 9.86523 15.125C9.56445 15.2617 9.28646 15.444 9.03125 15.6719C8.78516 15.8906 8.56185 16.1413 8.36133 16.4238C8.16992 16.7064 7.99674 16.9889 7.8418 17.2715C7.68685 17.5449 7.55469 17.8092 7.44531 18.0645C7.34505 18.3197 7.26758 18.5339 7.21289 18.707C7.5319 18.543 7.86003 18.3561 8.19727 18.1465C8.54362 17.9368 8.86719 17.7363 9.16797 17.5449C9.46875 17.3535 9.72852 17.1803 9.94727 17.0254C10.1751 16.8704 10.3346 16.7656 10.4258 16.7109C10.8359 16.4557 11.1185 16.2188 11.2734 16C11.4284 15.7721 11.5059 15.5762 11.5059 15.4121C11.5059 15.2754 11.4603 15.166 11.3691 15.084C11.2871 15.002 11.1914 14.9518 11.082 14.9336ZM11.5742 13.0469C12.3307 13.0469 12.8958 13.2292 13.2695 13.5938C13.6432 13.9583 13.8301 14.4642 13.8301 15.1113C13.8301 15.4941 13.7298 15.8952 13.5293 16.3145C13.3288 16.7337 12.9824 17.1621 12.4902 17.5996C11.998 18.028 11.3372 18.4701 10.5078 18.9258C9.6875 19.3724 8.65755 19.8236 7.41797 20.2793C7.46354 20.5436 7.60482 20.7533 7.8418 20.9082C8.07878 21.054 8.39323 21.127 8.78516 21.127C9.20443 21.127 9.65104 21.0677 10.125 20.9492C10.6081 20.8216 11.082 20.6621 11.5469 20.4707C12.0208 20.2793 12.4811 20.0742 12.9277 19.8555C13.3743 19.6276 13.7754 19.4134 14.1309 19.2129C14.4954 19.0124 14.7962 18.8392 15.0332 18.6934C15.2793 18.5475 15.4434 18.4564 15.5254 18.4199C15.6074 18.3652 15.6803 18.3333 15.7441 18.3242C15.8171 18.3151 15.8809 18.3105 15.9355 18.3105C16.0449 18.3105 16.1361 18.3379 16.209 18.3926C16.2819 18.4382 16.3411 18.4974 16.3867 18.5703C16.4414 18.6341 16.4779 18.707 16.4961 18.7891C16.5143 18.862 16.5234 18.9258 16.5234 18.9805C16.5234 19.0625 16.5143 19.1628 16.4961 19.2812C16.4779 19.3906 16.4095 19.5182 16.291 19.6641C16.2454 19.7096 16.0905 19.8327 15.8262 20.0332C15.571 20.2337 15.2383 20.4707 14.8281 20.7441C14.418 21.0176 13.9395 21.3092 13.3926 21.6191C12.8548 21.9199 12.2806 22.1979 11.6699 22.4531C11.0684 22.7083 10.4395 22.918 9.7832 23.082C9.12695 23.2552 8.47982 23.3418 7.8418 23.3418C7.29492 23.3418 6.80729 23.237 6.37891 23.0273C5.95964 22.8177 5.59961 22.5352 5.29883 22.1797C5.00716 21.8242 4.78385 21.4141 4.62891 20.9492C4.47396 20.4844 4.39648 19.9967 4.39648 19.4863C4.39648 19.0944 4.47396 18.666 4.62891 18.2012C4.78385 17.7272 5.00716 17.2533 5.29883 16.7793C5.59049 16.3053 5.94596 15.8451 6.36523 15.3984C6.79362 14.9427 7.27214 14.5417 7.80078 14.1953C8.32943 13.849 8.9082 13.571 9.53711 13.3613C10.1751 13.1517 10.8542 13.0469 11.5742 13.0469ZM21.9238 15.3301C21.4043 15.3301 20.8848 15.4577 20.3652 15.7129C19.8457 15.959 19.3763 16.2871 18.957 16.6973C18.5469 17.1074 18.2096 17.5723 17.9453 18.0918C17.681 18.6022 17.5488 19.1217 17.5488 19.6504C17.5488 19.7962 17.5625 19.9466 17.5898 20.1016C17.6172 20.2474 17.6719 20.3841 17.7539 20.5117C17.8451 20.6393 17.9727 20.7441 18.1367 20.8262C18.3008 20.9082 18.5195 20.9492 18.793 20.9492C19.3216 20.9492 19.832 20.8262 20.3242 20.5801C20.8255 20.3249 21.2721 19.9922 21.6641 19.582C22.056 19.1719 22.3704 18.7116 22.6074 18.2012C22.8444 17.6816 22.9629 17.1621 22.9629 16.6426C22.9629 16.5059 22.9492 16.36 22.9219 16.2051C22.9036 16.0501 22.8581 15.9089 22.7852 15.7812C22.7122 15.6536 22.6074 15.5488 22.4707 15.4668C22.334 15.3757 22.1517 15.3301 21.9238 15.3301ZM23.0723 20.8398C22.2975 21.7695 21.4727 22.4531 20.5977 22.8906C19.7318 23.319 18.793 23.5332 17.7812 23.5332C17.2253 23.5332 16.7559 23.4512 16.373 23.2871C15.9902 23.1322 15.6803 22.918 15.4434 22.6445C15.2064 22.3711 15.0332 22.0521 14.9238 21.6875C14.8236 21.3229 14.7734 20.9355 14.7734 20.5254C14.7734 20.0605 14.8327 19.582 14.9512 19.0898C15.0697 18.5885 15.2246 18.1055 15.416 17.6406C15.5436 17.3398 15.6484 17.0892 15.7305 16.8887C15.8125 16.6882 15.8809 16.5195 15.9355 16.3828C15.9902 16.237 16.0358 16.1139 16.0723 16.0137C16.1178 15.9043 16.1634 15.7949 16.209 15.6855C16.2546 15.5671 16.3092 15.4349 16.373 15.2891C16.4368 15.1341 16.5234 14.9382 16.6328 14.7012L20.625 5.82812C20.6797 5.70964 20.7572 5.5957 20.8574 5.48633C20.9668 5.37695 21.0898 5.28125 21.2266 5.19922C21.3633 5.10807 21.5091 5.03971 21.6641 4.99414C21.8281 4.93945 21.9922 4.91211 22.1562 4.91211C22.5755 4.91211 22.8672 4.99414 23.0312 5.1582C23.2044 5.32227 23.291 5.52279 23.291 5.75977C23.291 5.94206 23.2454 6.14258 23.1543 6.36133C23.0632 6.57096 22.9629 6.76693 22.8535 6.94922C22.179 8.24349 21.541 9.56055 20.9395 10.9004C20.3379 12.2311 19.6999 13.5482 19.0254 14.8516C19.3171 14.6237 19.627 14.4049 19.9551 14.1953C20.2832 13.9766 20.625 13.7852 20.9805 13.6211C21.3359 13.4479 21.7051 13.3112 22.0879 13.2109C22.4707 13.1016 22.8626 13.0469 23.2637 13.0469C23.5462 13.0469 23.8333 13.1016 24.125 13.2109C24.4167 13.3203 24.681 13.4798 24.918 13.6895C25.1641 13.8991 25.36 14.1589 25.5059 14.4688C25.6608 14.7695 25.7383 15.1204 25.7383 15.5215C25.7383 15.6126 25.7109 15.7949 25.6562 16.0684C25.6016 16.3418 25.5195 16.6517 25.4102 16.998C25.3099 17.3353 25.1823 17.6862 25.0273 18.0508C24.8815 18.4062 24.7174 18.7207 24.5352 18.9941C24.599 19.0944 24.681 19.1582 24.7812 19.1855C24.8815 19.2038 24.9954 19.2129 25.123 19.2129C25.5423 19.2129 25.957 19.1582 26.3672 19.0488C26.7865 18.9395 27.1784 18.8073 27.543 18.6523C27.9167 18.4883 28.2585 18.3197 28.5684 18.1465C28.8783 17.9733 29.138 17.8229 29.3477 17.6953C29.457 17.5768 29.5755 17.5176 29.7031 17.5176C29.8581 17.5176 29.9902 17.5859 30.0996 17.7227C30.2181 17.8594 30.2773 18.0371 30.2773 18.2559C30.2773 18.4655 30.2318 18.6751 30.1406 18.8848C30.0586 19.0853 29.9036 19.3086 29.6758 19.5547C29.2656 19.8008 28.8509 20.0332 28.4316 20.252C28.0215 20.4707 27.6022 20.6621 27.1738 20.8262C26.7454 20.9811 26.3079 21.1087 25.8613 21.209C25.4238 21.3001 24.9772 21.3457 24.5215 21.3457C24.2298 21.3457 23.9609 21.3047 23.7148 21.2227C23.4688 21.1406 23.2546 21.013 23.0723 20.8398Z" fill="white" />
	</g>
	<defs>
		<linearGradient id="paint0_linear_410_5" x1="2.16595" y1="0.422736" x2="29.8327" y2="32.179" gradientUnits="userSpaceOnUse">
			<stop stop-color="#CD201F" />
			<stop offset="1" stop-color="#FE5196" />
		</linearGradient>
		<clipPath id="clip0_410_5">
			<rect width="32" height="32" rx="16" fill="white" />
		</clipPath>
	</defs>
</svg>
